<svg version="1.1" baseProfile="full" width="118" height="94" xmlns="http://www.w3.org/2000/svg">
	<rect x="0" y="0" width="10" height="10" fill="#45424a"></rect>
	<rect x="60" y="0" width="10" height="10" fill="#45474a"></rect>
	<rect x="0" y="12" width="10" height="10" fill="#45424a"></rect>
	<rect x="12" y="12" width="10" height="10" fill="#45434a"></rect>
	<rect x="24" y="12" width="10" height="10" fill="#45434a"></rect>
	<rect x="48" y="12" width="10" height="10" fill="#45454a"></rect>
	<rect x="60" y="12" width="10" height="10" fill="#45434a"></rect>
	<rect x="84" y="12" width="10" height="10" fill="#45474a"></rect>
	<rect x="108" y="12" width="10" height="10" fill="#45444a"></rect>
	<rect x="0" y="24" width="10" height="10" fill="#45494a"></rect>
	<rect x="24" y="24" width="10" height="10" fill="#45424a"></rect>
	<rect x="60" y="24" width="10" height="10" fill="#45454a"></rect>
	<rect x="96" y="24" width="10" height="10" fill="#45484a"></rect>
	<rect x="108" y="24" width="10" height="10" fill="#45434a"></rect>
	<rect x="0" y="36" width="10" height="10" fill="#45454a"></rect>
	<rect x="24" y="36" width="10" height="10" fill="#45494a"></rect>
	<rect x="60" y="36" width="10" height="10" fill="#45434a"></rect>
	<rect x="108" y="36" width="10" height="10" fill="#45434a"></rect>
	<rect x="12" y="48" width="10" height="10" fill="#45424a"></rect>
	<rect x="36" y="48" width="10" height="10" fill="#45434a"></rect>
	<rect x="72" y="48" width="10" height="10" fill="#45424a"></rect>
	<rect x="84" y="48" width="10" height="10" fill="#45464a"></rect>
	<rect x="0" y="60" width="10" height="10" fill="#45454a"></rect>
	<rect x="12" y="60" width="10" height="10" fill="#45424a"></rect>
	<rect x="0" y="72" width="10" height="10" fill="#45434a"></rect>
	<rect x="12" y="72" width="10" height="10" fill="#45434a"></rect>
	<rect x="24" y="72" width="10" height="10" fill="#45424a"></rect>
	<rect x="84" y="72" width="10" height="10" fill="#45454a"></rect>
	<rect x="96" y="72" width="10" height="10" fill="#454949"></rect>
	<rect x="0" y="84" width="10" height="10" fill="#454949"></rect>
	<rect x="24" y="84" width="10" height="10" fill="#45454a"></rect>
	<rect x="36" y="84" width="10" height="10" fill="#45464a"></rect>
	<rect x="48" y="84" width="10" height="10" fill="#454943"></rect>
	<rect x="60" y="84" width="10" height="10" fill="#45434a"></rect>
	<rect x="84" y="84" width="10" height="10" fill="#45424a"></rect>
	<rect x="96" y="84" width="10" height="10" fill="#45444a"></rect>
</svg>
